<?xml version="1.0" standalone="no"?>
<!DOCTYPE svg PUBLIC "-//W3C//DTD SVG 20010904//EN"
 "http://www.w3.org/TR/2001/REC-SVG-20010904/DTD/svg10.dtd">
<svg version="1.0" xmlns="http://www.w3.org/2000/svg"
 width="121.000000pt" height="121.000000pt" viewBox="0 0 121.000000 121.000000"
 preserveAspectRatio="xMidYMid meet">
<metadata>
Created by potrace 1.11, written by Peter Selinger 2001-2013
</metadata>
<g transform="translate(0.000000,121.000000) scale(0.100000,-0.100000)"
fill="#000000" stroke="none">
<path d="M937 1014 c-3 -3 -54 -13 -97 -19 -21 -3 -163 -29 -225 -41 -18 -4
-204 -37 -282 -51 -39 -7 -57 -26 -50 -53 3 -11 0 -20 -6 -21 -7 0 -19 -2 -27
-4 -8 -1 -33 -6 -55 -9 -214 -34 -217 -37 -167 -133 22 -42 41 -61 105 -102
43 -28 79 -51 82 -51 2 0 5 10 7 23 3 21 8 22 107 25 112 3 130 -5 131 -56 0
-25 29 -82 42 -82 4 0 25 -35 47 -79 35 -70 38 -81 26 -98 -12 -17 -11 -22 4
-35 48 -41 50 -40 125 46 71 80 122 139 141 160 6 6 35 40 65 76 30 35 62 71
70 80 8 9 40 45 71 81 139 159 151 174 135 177 -9 2 -16 7 -16 12 0 5 -72 9
-160 8 -88 0 -162 1 -165 3 -2 3 33 33 78 68 64 49 76 61 54 57 -23 -4 -26 -2
-18 8 8 9 7 13 -4 13 -8 0 -16 -2 -18 -3z"/>
</g>
</svg>
